<svg xmlns="http://www.w3.org/2000/svg" version="1.1" xmlns:xlink="http://www.w3.org/1999/xlink" xmlns:svgjs="http://svgjs.dev/svgjs" width="1500" height="1500" viewBox="0 0 1500 1500"><g transform="matrix(1,0,0,1,-0.3236151603499593,-0.3236151603499593)"><svg viewBox="0 0 343 343" data-background-color="#ffffff" preserveAspectRatio="xMidYMid meet" height="1500" width="1500" xmlns="http://www.w3.org/2000/svg" xmlns:xlink="http://www.w3.org/1999/xlink"><g id="tight-bounds" transform="matrix(1,0,0,1,0.07400000000001228,0.07400000000001228)"><svg viewBox="0 0 342.8515585177538 342.8515585177538" height="342.8515585177538" width="342.8515585177538"><g><svg></svg></g><g><svg viewBox="0 0 342.8515585177538 342.8515585177538" height="342.8515585177538" width="342.8515585177538"><g><path d="M0 171.426c0-94.676 76.75-171.426 171.426-171.426 94.676 0 171.426 76.75 171.426 171.426 0 94.676-76.75 171.426-171.426 171.426-94.676 0-171.426-76.75-171.426-171.426zM171.426 339.203c92.661 0 167.777-75.117 167.777-167.777 0-92.661-75.117-167.777-167.777-167.778-92.661 0-167.777 75.117-167.778 167.778 0 92.661 75.117 167.777 167.778 167.777z" data-fill-palette-color="tertiary" fill="#2b35f0" stroke="transparent"></path><ellipse rx="164.56874808852183" ry="164.56874808852183" cx="171.4257792588769" cy="171.4257792588769" fill="#2b35f0" stroke="transparent" stroke-width="0" fill-opacity="1" data-fill-palette-color="tertiary"></ellipse></g><g transform="matrix(1,0,0,1,64.84655864529836,122.61554513551515)"><svg viewBox="0 0 213.15844122715708 97.6204682467235" height="97.6204682467235" width="213.15844122715708"><g><svg viewBox="0 0 213.15844122715708 97.6204682467235" height="97.6204682467235" width="213.15844122715708"><g><svg viewBox="0 0 213.15844122715708 97.6204682467235" height="97.6204682467235" width="213.15844122715708"><g transform="matrix(1,0,0,1,0,57.164604319783635)"><svg viewBox="0 0 213.15844122715708 40.45586392693988" height="40.45586392693988" width="213.15844122715708"><g id="textblocktransform"><svg viewBox="0 0 213.15844122715708 40.45586392693988" height="40.45586392693988" width="213.15844122715708" id="textblock"><g><svg viewBox="0 0 213.15844122715708 40.45586392693988" height="40.45586392693988" width="213.15844122715708"><g transform="matrix(1,0,0,1,0,0)"><svg width="213.15844122715708" viewBox="1.9499999999999997 -35.18 187.02 35.5" height="40.45586392693988" data-palette-color="#ffffff"><path d="M10.62 0.32L10.62 0.32Q6.15 0.32 4.22-1.12 2.29-2.56 2.17-5.88L2.17-5.88Q1.73-17.43 2.17-28.98L2.17-28.98Q2.29-32.01 4.25-33.58 6.2-35.16 10.57-35.16L10.57-35.16Q15.09-35.16 17.15-33.72 19.21-32.28 19.31-28.96L19.31-28.96Q19.36-28.15 19.36-26.97 19.36-25.78 19.32-24.6 19.29-23.41 19.26-22.58L19.26-22.58 15.87-22.58Q15.92-24.17 15.93-26.05 15.94-27.93 15.87-29.52L15.87-29.52Q15.84-30.98 14.66-31.62 13.48-32.25 10.57-32.25L10.57-32.25Q7.91-32.25 6.77-31.62 5.64-30.98 5.57-29.52L5.57-29.52Q5.18-17.43 5.57-5.32L5.57-5.32Q5.64-3.88 6.77-3.23 7.91-2.59 10.62-2.59L10.62-2.59Q13.67-2.59 14.9-3.23 16.14-3.88 16.21-5.32L16.21-5.32Q16.28-7.03 16.22-9 16.16-10.96 16.09-12.67L16.09-12.67 19.56-12.67Q19.68-10.96 19.7-9.29 19.73-7.62 19.6-5.88L19.6-5.88Q19.46-2.56 17.37-1.12 15.28 0.32 10.62 0.32ZM32.42 0.32L32.42 0.32Q27.63 0.32 25.61-1.12 23.58-2.56 23.46-5.86L23.46-5.86Q23.22-11.79 23.22-17.44 23.22-23.1 23.46-29.03L23.46-29.03Q23.58-32.32 25.61-33.75 27.63-35.18 32.42-35.18L32.42-35.18Q37.18-35.18 39.26-33.75 41.33-32.32 41.35-29.03L41.35-29.03Q41.5-23.07 41.5-17.43 41.5-11.79 41.35-5.86L41.35-5.86Q41.33-2.56 39.26-1.12 37.18 0.32 32.42 0.32ZM32.42-2.61L32.42-2.61Q35.45-2.61 36.67-3.23 37.89-3.86 37.96-5.27L37.96-5.27Q38.3-11.38 38.24-17.53 38.18-23.68 37.96-29.59L37.96-29.59Q37.89-31.03 36.64-31.64 35.4-32.25 32.42-32.25L32.42-32.25Q29.39-32.25 28.16-31.64 26.93-31.03 26.85-29.59L26.85-29.59Q26.51-23.68 26.55-17.53 26.58-11.38 26.85-5.27L26.85-5.27Q26.93-3.86 28.16-3.23 29.39-2.61 32.42-2.61ZM48.82-13.09L49.02 0 45.7 0 45.7-34.86 51.92-34.86 54.63-23.8 59.15-3.13 60.52-3.13 59.96-22.12 59.79-34.86 63.13-34.86 63.13 0 56.73 0 53.66-12.33 49.78-31.76 48.31-31.76 48.82-13.09ZM70.67-13.09L70.87 0 67.55 0 67.55-34.86 73.77-34.86 76.48-23.8 81-3.13 82.37-3.13 81.8-22.12 81.63-34.86 84.98-34.86 84.98 0 78.58 0 75.51-12.33 71.62-31.76 70.16-31.76 70.67-13.09ZM104.09-3.13L104.09 0 89.42 0 89.42-34.86 104.09-34.86 104.09-31.74 92.81-31.74 92.81-19.14 103.33-19.14 103.33-16.02 92.81-16.02 92.81-3.13 104.09-3.13ZM115.64 0.32L115.64 0.32Q111.17 0.32 109.24-1.12 107.31-2.56 107.19-5.88L107.19-5.88Q106.75-17.43 107.19-28.98L107.19-28.98Q107.31-32.01 109.26-33.58 111.22-35.16 115.59-35.16L115.59-35.16Q120.1-35.16 122.17-33.72 124.23-32.28 124.33-28.96L124.33-28.96Q124.38-28.15 124.38-26.97 124.38-25.78 124.34-24.6 124.3-23.41 124.28-22.58L124.28-22.58 120.89-22.58Q120.93-24.17 120.95-26.05 120.96-27.93 120.89-29.52L120.89-29.52Q120.86-30.98 119.68-31.62 118.49-32.25 115.59-32.25L115.59-32.25Q112.93-32.25 111.79-31.62 110.66-30.98 110.58-29.52L110.58-29.52Q110.19-17.43 110.58-5.32L110.58-5.32Q110.66-3.88 111.79-3.23 112.93-2.59 115.64-2.59L115.64-2.59Q118.69-2.59 119.92-3.23 121.15-3.88 121.23-5.32L121.23-5.32Q121.3-7.03 121.24-9 121.18-10.96 121.11-12.67L121.11-12.67 124.57-12.67Q124.69-10.96 124.72-9.29 124.74-7.62 124.62-5.88L124.62-5.88Q124.47-2.56 122.39-1.12 120.3 0.32 115.64 0.32ZM136.51-31.74L136.51 0 133.11 0 133.11-31.74 126.45-31.74 126.45-34.86 143.2-34.86 143.2-31.74 136.51-31.74ZM150.06-34.86L150.06 0 146.66 0 146.66-34.86 150.06-34.86ZM158.99-16.02L158.99 0 155.6 0 155.6-34.86 169.73-34.86 169.73-31.74 158.99-31.74 158.99-19.14 169.02-19.14 169.02-16.02 158.99-16.02ZM181.81-9.01L181.81 0 178.37 0 178.37-9.06 171.24-34.86 174.78-34.86 177.47-25.24 179.59-14.26 180.69-14.26 182.69-25.24 185.38-34.86 188.97-34.86 181.81-9.01Z" opacity="1" transform="matrix(1,0,0,1,0,0)" fill="#ffffff" class="wordmark-text-0" data-fill-palette-color="quaternary" id="text-0"></path></svg></g></svg></g></svg></g></svg></g><g transform="matrix(1,0,0,1,40.713262274387006,0)"><svg viewBox="0 0 131.73191667838307 47.61394578736738" height="47.61394578736738" width="131.73191667838307"><g><svg xmlns="http://www.w3.org/2000/svg" xmlns:xlink="http://www.w3.org/1999/xlink" version="1.1" x="0" y="0" viewBox="9 35 83 30" enable-background="new 0 0 100 100" xml:space="preserve" height="47.61394578736738" width="131.73191667838307" class="icon-icon-0" data-fill-palette-color="quaternary" id="icon-0"><g fill="#ffffff" data-fill-palette-color="quaternary"><g fill="#ffffff" data-fill-palette-color="quaternary"><path d="M44 65H38C36.7 65 35.6 64.2 35.2 63H28.8L21.9 60.3C19.5 59.3 18 57.1 18 54.5V45.6C18 43 19.5 40.7 21.9 39.8L28.8 37.1H35.2C35.6 35.9 36.7 35.1 38 35.1H44C45.7 35.1 47 36.4 47 38.1V62.1C47 63.7 45.7 65 44 65M29.2 61H37V62C37 62.6 37.4 63 38 63H44C44.6 63 45 62.6 45 62V38C45 37.4 44.6 37 44 37H38C37.4 37 37 37.4 37 38V39H29.2L22.7 41.6C21.1 42.3 20 43.8 20 45.6V54.5C20 56.3 21.1 57.8 22.7 58.5z" fill="#ffffff" data-fill-palette-color="quaternary"></path></g><g fill="#ffffff" data-fill-palette-color="quaternary"><rect x="46" y="41" width="6" height="4" fill="#ffffff" data-fill-palette-color="quaternary"></rect></g><g fill="#ffffff" data-fill-palette-color="quaternary"><rect x="46" y="55" width="6" height="4" fill="#ffffff" data-fill-palette-color="quaternary"></rect></g><g fill="#ffffff" data-fill-palette-color="quaternary"><rect x="35" y="41" width="2" height="18" fill="#ffffff" data-fill-palette-color="quaternary"></rect></g></g><g fill="#ffffff" data-fill-palette-color="quaternary"><path d="M63 65H57C55.3 65 54 63.7 54 62V38C54 36.3 55.3 35 57 35H63C64.3 35 65.4 35.8 65.8 37H72.2L79.1 39.7C81.5 40.7 83 42.9 83 45.5V54.4C83 57 81.5 59.3 79.1 60.2L72.2 63H65.8C65.4 64.2 64.3 65 63 65M57 37C56.4 37 56 37.4 56 38V62C56 62.6 56.4 63 57 63H63C63.6 63 64 62.6 64 62V61H71.8L78.3 58.4C79.9 57.7 81 56.2 81 54.4V45.5C81 43.7 79.9 42.2 78.3 41.5L71.8 39H64V38C64 37.4 63.6 37 63 37z" fill="#ffffff" data-fill-palette-color="quaternary"></path></g><g fill="#ffffff" data-fill-palette-color="quaternary"><rect x="64" y="41" width="2" height="18" fill="#ffffff" data-fill-palette-color="quaternary"></rect></g><g fill="#ffffff" data-fill-palette-color="quaternary"><rect x="9" y="49" width="10" height="2" fill="#ffffff" data-fill-palette-color="quaternary"></rect></g><g fill="#ffffff" data-fill-palette-color="quaternary"><rect x="82" y="49" width="10" height="2" fill="#ffffff" data-fill-palette-color="quaternary"></rect></g></svg></g></svg></g><g></g></svg></g></svg></g></svg></g></svg></g><defs></defs></svg><rect width="342.8515585177538" height="342.8515585177538" fill="none" stroke="none" visibility="hidden"></rect></g></svg></g></svg>